<svg version="1.1" xmlns="http://www.w3.org/2000/svg" xmlns:xlink="http://www.w3.org/1999/xlink" x="0px" y="0px" viewBox="0 0 512 512" style="enable-background:new 0 0 512 512;" xml:space="preserve">
<g id="F301_x2C__Backspace_x2C__clear_x2C__delete">
<path style="fill: hsla(0, 0%, 100%, .5);" d="M486,132.72v246.56c0,20.279-16.57,36.72-37.01,36.72H179.5c-10.23,0-20-4.2-27-11.61L36.01,281.11
		c-13.35-14.12-13.35-36.101,0-50.22L152.5,107.61c7-7.41,16.77-11.61,27-11.61h269.49C469.43,96,486,112.44,486,132.72z" id="id_101"></path>
<path style="fill: hsla(0, 0%, 0%, .8);" d="M448.99,426H179.5c-12.928,0-25.419-5.374-34.27-14.743L28.741,287.978
		c-16.953-17.932-16.953-46.026,0.002-63.958l116.488-123.278C154.082,91.373,166.573,86,179.5,86h269.49
		c25.921,0,47.01,20.959,47.01,46.72v246.56C496,405.042,474.911,426,448.99,426z M179.5,106c-7.45,0-14.642,3.09-19.731,8.477
		L43.278,237.758c-9.672,10.23-9.672,26.253-0.002,36.482l116.492,123.281C164.859,402.91,172.05,406,179.5,406h269.49
		c14.894,0,27.01-11.986,27.01-26.72V132.72c0-14.733-12.116-26.72-27.01-26.72H179.5z" id="id_102"></path>
<path style="fill: hsla(0, 0%, 0%, .8);" d="M396,356c-2.56,0-5.118-0.977-7.071-2.929l-180-180c-3.905-3.905-3.905-10.237,0-14.143
		c3.905-3.904,10.237-3.904,14.143,0l180,180c3.905,3.905,3.905,10.237,0,14.143C401.118,355.023,398.56,356,396,356z" id="id_103"></path>
<path style="fill: hsla(0, 0%, 0%, .8);" d="M216,356c-2.559,0-5.119-0.977-7.071-2.929c-3.905-3.905-3.905-10.237,0-14.143l180-180
		c3.906-3.904,10.236-3.904,14.143,0c3.905,3.905,3.905,10.237,0,14.143l-180,180C221.119,355.023,218.559,356,216,356z" id="id_104"></path>
</g>
<g id="Layer_1">
</g>
</svg>